PathFileType	4	(X/Y/Z)	C:\Users\WrightLab\Desktop\Jo\P4V129.trc
DataRate	CameraRate	NumFrames	NumMarkers	Units	OrigDataRate	OrigDataStartFrame	OrigNumFrames
100.00	100.00	       14	19	mm	100.00	343	       456
Frame#	Time	Headset_Front			Headset_Back			Headset_Left			Headset_Right			Left_Shoulder			Right_Shoulder			Sternum			C7			Left Elbow			Right Elbow			Left Wrist			Right Wrist			Left ASIS			Right ASIS			S2			Left Knee			Right Knee			Left Ankle			Right Ankle			
		X1	Y1	Z1	X2	Y2	Z2	X3	Y3	Z3	X4	Y4	Z4	X5	Y5	Z5	X6	Y6	Z6	X7	Y7	Z7	X8	Y8	Z8	X9	Y9	Z9	X10	Y10	Z10	X11	Y11	Z11	X12	Y12	Z12	X13	Y13	Z13	X14	Y14	Z14	X15	Y15	Z15	X16	Y16	Z16	X17	Y17	Z17	X18	Y18	Z18	X19	Y19	Z19	

343	3.420	-668.35358	1704.89404	-930.13068	-499.73184	1663.93347	-1050.28540							-720.15613	1504.75378	-885.97229	-552.71484	1452.60547	-950.56348							-862.55957	1160.16687	-940.85706	-233.42090	888.19708	-853.95715	-817.34180	890.99451	-1097.33203	-279.37241	1175.80115	-747.54773	-692.97949	1019.33386	-979.68127	-367.34399	1011.89526	-902.63312	-593.96362	1029.97571	-764.73431	-694.82001	524.14777	-967.43787	-304.44717	560.46698	-1000.17023	-678.54193	29.41588	-853.84229	-494.86804	223.65555	-680.03680	
344	3.430	-665.92560	1705.76843	-939.65417	-497.23438	1663.84778	-1059.24780							-718.61407	1505.13538	-895.98657	-550.76965	1452.58777	-958.73389							-858.78192	1161.11255	-955.64465	-230.73410	889.84790	-861.06946	-806.65015	892.21130	-1110.53503	-278.81271	1176.35498	-752.94653				-366.99344	1012.30280	-909.54706				-694.32019	524.17822	-970.49146	-299.55258	565.13867	-1012.57758	-678.42493	29.68504	-853.38263	-488.71271	213.39319	-702.79675	
345	3.440	-663.59955	1706.31030	-948.97009	-494.58295	1663.80176	-1067.56702							-716.72015	1505.83801	-905.74152	-548.53229	1452.65210	-966.77887							-855.21655	1161.88220	-970.51416	-227.97578	891.79779	-868.64380	-795.45978	893.11792	-1123.42688	-278.75134	1176.49329	-757.12567	-591.35132	1029.05664	-782.34833	-365.70108	1013.91125	-916.71735				-694.06653	523.66901	-973.18903	-295.10425	569.26001	-1024.17163	-678.32721	29.88967	-852.99078	-482.50717	201.93431	-727.49811	
346	3.450	-661.15796	1706.61963	-958.32465	-491.95480	1663.32251	-1076.58557							-715.01654	1505.85742	-916.00061	-546.40448	1452.59265	-975.08594							-850.76520	1162.31653	-984.68304	-225.71605	891.38898	-874.74738	-784.86786	894.90240	-1136.78027	-278.47815	1175.83899	-761.96332	-591.18060	1031.50940	-783.92133	-364.19284	1013.80737	-922.42688				-693.80273	523.32440	-975.82379	-290.89069	572.26093	-1034.63306	-678.18939	30.23903	-852.46167	-475.98557	189.46291	-753.47290	
347	3.460	-658.54681	1706.93286	-967.22589	-489.15817	1662.93225	-1085.21765							-713.08136	1506.05603	-925.46106	-544.14117	1452.48914	-983.26904							-846.31396	1162.07678	-998.71173	-222.09436	892.98334	-882.67108	-773.80365	896.36957	-1149.87756	-277.28058	1175.42908	-768.01147	-587.99225	1029.81812	-797.81012	-363.94968	1015.15076	-930.64325				-693.44287	523.01843	-979.15131	-287.50879	575.07349	-1044.84973	-677.99231	34.13255	-844.29486	-467.37198	177.53006	-778.23560	
348	3.470	-655.98029	1707.12402	-976.34375	-486.20685	1662.67993	-1093.47510							-711.01910	1505.64563	-934.66296	-541.75519	1451.98535	-990.86475							-842.11664	1161.95117	-1012.64093	-220.60709	894.01599	-891.03857				-277.15738	1175.26086	-773.03796				-362.08792	1015.32874	-939.41412				-693.07507	522.39240	-981.96820	-283.83820	577.95599	-1054.34888	-677.62408	34.70537	-844.06842	-460.52435	164.53273	-803.51697	
349	3.480	-653.31543	1707.02319	-984.90277	-483.28064	1661.93420	-1101.85352							-709.16339	1505.14392	-944.28278	-539.54102	1451.10962	-999.13879							-837.83063	1162.28833	-1026.70227	-218.10947	893.98401	-897.67725	-751.65479	899.62231	-1175.66724	-277.79059	1174.50916	-779.58203	-585.68353	1030.35828	-807.68622	-360.97913	1015.37268	-944.47583				-692.40088	521.73737	-985.18500	-280.29471	580.33319	-1063.44519	-677.55426	34.79335	-843.99866	-451.36377	152.36459	-829.66260	
350	3.490	-650.68896	1706.63977	-993.69501	-480.29306	1661.24390	-1110.37512							-706.86194	1504.64917	-953.56702	-537.11383	1450.70325	-1007.44537							-833.62195	1162.08301	-1039.06689	-215.79745	894.90002	-906.05878	-740.60016	900.46912	-1188.00452	-277.21323	1173.48840	-784.90405	-584.67773	1031.41931	-814.57513	-359.54242	1016.28967	-953.19318				-691.44476	521.09271	-988.62201	-278.01285	581.13904	-1070.87292	-677.37128	34.97607	-843.80646	-442.25031	140.40393	-855.08142	
351	3.500				-477.21164	1660.36963	-1118.19360							-704.65967	1504.32166	-962.51294	-534.56183	1449.93726	-1014.81628							-828.57489	1161.64404	-1052.35132	-213.52208	894.47046	-913.02332	-730.16052	901.54938	-1199.87830	-276.75806	1171.71667	-790.31793	-582.93457	1030.97546	-821.16113	-357.60428	1015.06317	-959.16302				-690.08557	520.57996	-992.05566	-274.79388	581.95911	-1078.42102	-677.30042	35.04059	-843.73083	-432.22855	129.25893	-880.92017	
352	3.510	-645.08917	1705.94495	-1010.62811	-473.88538	1660.15063	-1125.99329							-702.18848	1503.72119	-972.08185	-531.95361	1449.16943	-1022.79602							-822.78357	1161.63428	-1065.03955	-211.38884	895.35156	-921.63458	-719.14398	903.37152	-1212.94739	-276.50980	1171.08521	-796.77002	-581.17694	1030.54907	-827.71039	-357.17130	1015.77405	-966.61768				-688.58020	519.88788	-995.19415	-272.80264	582.21997	-1085.78418	-677.38263	34.70998	-845.21259	-423.05365	117.01119	-907.43365	
353	3.520	-642.06989	1705.75549	-1019.52704	-470.59402	1659.44299	-1133.99084							-699.87848	1503.09644	-980.38226	-529.41180	1448.11609	-1030.32324							-817.65625	1161.56628	-1077.71655	-209.30838	895.31104	-929.53412	-708.63654	906.70551	-1225.97729	-275.91580	1170.14734	-803.48438	-579.96832	1031.60498	-833.70190	-354.19351	1014.91492	-974.25690				-687.14258	519.22772	-999.00848	-270.24646	582.07813	-1091.66248	-677.27124	34.82937	-845.09717	-410.68723	106.44608	-933.56152	
354	3.530	-639.05157	1705.16760	-1027.60669	-467.42282	1658.32080	-1142.01978							-697.29541	1502.43213	-988.52728	-526.66748	1447.50500	-1038.27759							-812.42572	1161.28674	-1089.38794	-207.94176	894.75696	-937.28680	-698.08398	907.89050	-1236.84387	-274.39682	1168.72095	-809.97876	-578.18298	1029.58899	-843.83087	-352.54865	1014.73175	-980.64880				-685.66473	518.47546	-1002.05975	-268.69641	581.03540	-1097.55737	-677.07782	35.29155	-843.50250	-399.05981	95.74621	-959.89093	
355	3.540	-635.95160	1704.70203	-1035.31409	-464.11301	1657.57251	-1149.88916							-694.69891	1501.91956	-997.37250	-523.91687	1446.86926	-1046.43408							-806.79150	1160.84851	-1101.38831	-206.54308	894.30579	-945.27197	-687.58765	908.91016	-1248.18396	-273.35614	1167.63306	-817.08405	-576.24243	1028.44519	-852.81592	-350.14484	1013.53046	-987.63354				-683.96136	518.23096	-1005.80817	-267.40900	579.87238	-1103.55103	-676.93835	35.76829	-845.39191	-387.17584	85.53902	-984.46619	
356	3.550	-632.84540	1703.85913	-1043.93005	-460.50476	1656.97498	-1157.60486							-692.11719	1500.91333	-1005.11371	-521.16486	1445.64563	-1054.05664							-801.40875	1160.35999	-1112.57227	-204.27975	893.62317	-953.45264	-677.49835	911.34979	-1259.19763	-273.03650	1166.68250	-823.77716	-574.98645	1028.82361	-859.17780	-347.70227	1012.68958	-994.89355	-672.04102	1003.05780	-1070.14185	-682.35498	517.86078	-1008.78699	-266.28357	577.05505	-1108.37341	-676.87811	35.84830	-845.33246	-375.03241	76.48959	-1010.79462	
